<svg width="57" height="27" viewBox="0 0 57 27" fill="none" xmlns="http://www.w3.org/2000/svg">
<path d="M23.5921 6.83636H6V5.66818M23.5921 6.83636V7.16363C23.5921 9.37277 25.3829 11.1636 27.5921 11.1636H29.153C31.3621 11.1636 33.153 9.37277 33.153 7.16363V6.83636M23.5921 6.83636V6C23.5921 3.79086 25.3829 2 27.5921 2H29.153C31.3621 2 33.153 3.79086 33.153 6V6.83636M23.5921 6.83636L17 11.1636L11.6091 16.9818M33.153 6.83636H51V5M33.153 6.83636L40 11.1636L45.136 16.9818M6 5.66818V5L3 6.83636L6 8.5V5.66818ZM51 5L53.5 6.83636L51 8.5V5ZM44.5666 25H46.3428C47.9996 25 49.3428 23.6569 49.3428 22V19.9818C49.3428 18.325 47.9996 16.9818 46.3428 16.9818H44.5666C42.9097 16.9818 41.5666 18.325 41.5666 19.9818V22C41.5666 23.6569 42.9097 25 44.5666 25ZM10.0198 25H11.9235C13.5804 25 14.9235 23.6569 14.9235 22V19.9818C14.9235 18.325 13.5804 16.9818 11.9235 16.9818H10.0198C8.36298 16.9818 7.01983 18.325 7.01983 19.9818V22C7.01983 23.6569 8.36297 25 10.0198 25Z" stroke="#4BA695" stroke-width="3" stroke-linecap="round"/>
</svg>
